<svg width="792" height="108" viewBox="0 0 792 108" fill="none" xmlns="http://www.w3.org/2000/svg">
<path d="M624.526 38.237C624.526 38.237 618.905 36.3336 611.35 36.3336C603.738 36.3336 592.172 40.2867 592.172 55.2209C592.172 69.6866 600.254 75.8653 611.965 75.8653C618.729 75.8653 625.287 73.0541 625.287 73.0541L622.916 65.5284C622.916 65.5284 618.202 67.9004 612.346 67.9004C606.49 67.9004 600.458 66.3776 600.458 55.4259C600.458 46.4361 606.841 44.2399 611.643 44.2399C616.357 44.2399 622.301 45.909 622.301 45.909L624.526 38.237Z" fill="white"/>
<path d="M644.585 21.9261H624.265V28.9247H636.445V75.2207H660.279V67.2265H644.585V21.9261Z" fill="white"/>
<path d="M684.949 36.4795C672.388 36.4795 664.775 43.8001 664.775 56.0403C664.775 67.6948 672.388 75.9232 684.949 75.9232C696.836 75.9232 704.273 67.6948 704.273 56.0403C704.303 43.7709 696.836 36.4795 684.949 36.4795ZM684.949 68.0755C675.96 68.0755 673.062 62.9803 673.062 56.0403C673.062 50.0373 675.96 43.7123 684.949 43.7123C693.177 43.7123 696.368 50.0373 696.368 56.0403C696.368 62.9803 693.177 68.0755 684.949 68.0755Z" fill="white"/>
<path d="M725.792 75.6895C734.459 75.6895 736.743 68.9839 736.743 68.9839L737.211 75.2211H745.117V37.1536H736.596V41.4288V56.2752C736.596 62.6588 733.258 68.0761 727.315 68.0761C720.844 68.0761 719.175 63.5958 719.175 58.7934C719.175 55.5138 719.263 45.7626 719.175 37.1828H711.182V58.4128C711.182 70.7408 716.13 75.6895 725.792 75.6895Z" fill="white"/>
<path d="M771.767 75.9233C779.673 75.9233 783.947 70.0668 783.947 70.0668L784.24 75.2498H791.999V21.9553H784.24V41.6625C784.24 41.6625 780.58 36.7137 772.353 36.7137C759.938 36.7137 752.794 46.377 752.794 55.6596C752.823 66.2307 758.738 75.9233 771.767 75.9233ZM772.821 44.1516C781.342 44.1516 784.24 50.4766 784.24 56.2453C784.24 61.5748 781.107 68.3391 772.587 68.3391C763.305 68.3391 761.168 62.1605 761.168 55.6304C761.197 48.8076 765.208 44.1516 772.821 44.1516Z" fill="white"/>
<path d="M17.4213 51.9408C9.83791 51.1209 8.63746 50.2717 8.5789 48.0169C8.5789 45.1472 12.5024 43.7123 16.0745 43.8588C22.8087 44.093 28.8696 46.3478 28.8696 46.3478L31.2998 38.8514C31.007 38.7636 24.1849 36.6553 16.3087 36.421C8.13971 36.1868 0.644147 39.9642 0.878384 48.1633C1.02478 58.0023 10.4235 59.0565 16.5429 59.73C23.5115 60.5499 25.3854 61.3112 25.561 63.4489C25.6489 65.0301 25.561 69.2762 15.7231 68.5148C9.22306 67.9877 3.39643 65.0302 3.30859 64.9716L0 71.7652C0.380634 71.9116 7.49556 75.3962 15.8109 75.6305C20.0565 75.7769 26.1173 75.5427 29.953 71.6188C31.4755 70.1839 33.203 67.3728 32.9688 63.0682C32.5296 53.7563 23.4529 52.6729 17.4213 51.9408Z" fill="white"/>
<path d="M58.2917 36.4215C42.2465 36.4215 39.3771 50.5065 39.3771 55.8652C39.3771 60.9312 41.3388 75.5433 58.6723 75.5433C66.08 75.5433 73.4292 72.5272 73.4292 72.5272L71.4674 65.7922C71.4674 65.7922 64.9674 68.369 58.9944 68.369C51.3524 68.369 47.4875 63.5374 47.4875 58.9107H75.4787V54.5183C75.4787 54.5183 76.0936 36.4215 58.2917 36.4215ZM67.8368 52.1464H47.5461C47.5461 52.1464 48.4537 43.8886 58.2917 43.8886C68.3638 43.9179 67.8368 52.1464 67.8368 52.1464Z" fill="white"/>
<path d="M92.6719 44.4448L92.2327 37.0948H84.825V74.9281H93.2867V51.2384C93.2867 48.603 96.6832 45.0304 100.109 45.0304H113.285V37.0948H101.251C94.4286 37.0948 92.6719 43.3028 92.6719 44.4448Z" fill="white"/>
<path d="M137.496 67.6074L128.566 37.0948H120.016L131.523 74.9281H143.557L155.591 37.0948H147.481L137.496 67.6074Z" fill="white"/>
<path d="M179.368 36.4215C163.323 36.4215 160.454 50.5065 160.454 55.8652C160.454 60.9312 162.415 75.5433 179.749 75.5433C187.157 75.5433 194.506 72.5272 194.506 72.5272L192.544 65.7922C192.544 65.7922 186.044 68.369 180.042 68.369C172.4 68.369 168.535 63.5374 168.535 58.9107H196.526V54.5183C196.555 54.5183 197.17 36.4215 179.368 36.4215ZM188.913 52.1464H168.623C168.623 52.1464 169.53 43.8886 179.368 43.8886C189.44 43.9179 188.913 52.1464 188.913 52.1464Z" fill="white"/>
<path d="M213.744 44.4448L213.276 37.0948H205.868V74.9281H214.359V51.2384C214.359 48.603 217.755 45.0304 221.181 45.0304H234.357V37.0948H222.323C215.501 37.0948 213.744 43.3028 213.744 44.4448Z" fill="white"/>
<path d="M255.057 21.9553H234.854V28.9245H246.976V74.957H270.663V67.0214H255.057V21.9553Z" fill="white"/>
<path d="M295.107 36.4215C279.062 36.4215 276.192 50.5065 276.192 55.8652C276.192 60.9312 278.154 75.5433 295.488 75.5433C302.895 75.5433 310.244 72.5272 310.244 72.5272L308.283 65.7922C308.283 65.7922 301.783 68.369 295.78 68.369C288.138 68.369 284.274 63.5374 284.274 58.9107H312.265V54.5183C312.294 54.5183 312.909 36.4215 295.107 36.4215ZM304.652 52.1464H284.361C284.361 52.1464 285.269 43.8886 295.107 43.8886C305.179 43.9179 304.652 52.1464 304.652 52.1464Z" fill="white"/>
<path d="M335.893 51.9408C328.31 51.1209 327.11 50.2717 327.051 48.0169C327.051 45.1472 330.974 43.7123 334.547 43.8588C341.281 44.093 347.342 46.3478 347.342 46.3478L349.772 38.8514C349.479 38.7636 342.657 36.6553 334.781 36.421C326.612 36.1868 319.116 39.9642 319.351 48.1633C319.497 58.0023 328.896 59.0565 335.015 59.73C341.984 60.5499 343.857 61.3112 344.033 63.4489C344.121 65.0301 344.033 69.2762 334.195 68.5148C327.695 67.9877 321.869 65.0302 321.781 64.9716L318.531 71.7945C318.911 71.9409 326.026 75.4255 334.342 75.6598C338.587 75.8062 344.648 75.572 348.484 71.6481C350.006 70.2132 351.734 67.4021 351.499 63.0975C351.031 53.7563 341.954 52.6729 335.893 51.9408Z" fill="white"/>
<path d="M375.218 51.9408C367.664 51.1209 366.434 50.2717 366.376 48.0169C366.376 45.1472 370.299 43.7123 373.871 43.8588C380.605 44.093 386.666 46.3478 386.666 46.3478L389.096 38.8514C388.804 38.7636 381.982 36.6553 374.105 36.421C365.936 36.1868 358.441 39.9642 358.675 48.1633C358.821 58.0023 368.22 59.0565 374.34 59.73C381.308 60.5499 383.182 61.3112 383.358 63.4489C383.445 65.0301 383.358 69.2762 373.52 68.5148C367.02 67.9877 361.193 65.0302 361.105 64.9716L357.855 71.7945C358.236 71.9409 365.351 75.4255 373.666 75.6598C377.912 75.8062 383.943 75.572 387.808 71.6481C389.331 70.2132 391.058 67.4021 390.824 63.0975C390.355 53.7563 381.279 52.6729 375.218 51.9408Z" fill="white"/>
<g clip-path="url(#clip0)">
<path d="M554.371 54.5662C552.952 52.1924 547.407 43.81 547.407 43.81H547.356C546.556 42.5722 545.576 41.4362 544.468 40.4301C544.078 40.0735 543.643 39.7424 543.192 39.424C541.837 37.934 539.926 36.7955 537.672 36.0212C537.708 35.4277 537.726 34.8317 537.726 34.2306C537.726 15.683 520.798 0.650269 499.917 0.650269C489.222 0.650269 479.566 4.59565 472.689 10.9327H468.889L468.874 10.9735L464.437 11.1034C461.704 11.1798 459.073 11.6968 456.623 12.652C447.364 16.2102 441.147 25.265 441.147 35.1959C441.147 35.9957 441.198 36.7955 441.277 37.6971L441.328 38.1097C441.378 38.3925 441.432 38.6777 441.483 38.9859L442.178 44.7117L436.557 46.054C435.862 46.2094 435.138 46.3902 434.494 46.622C429.593 48.5043 426.318 53.3029 426.318 58.5396C426.318 58.9268 426.318 59.3139 426.369 59.6221L426.42 60.1366V60.1621C426.471 60.8574 430.006 85.8797 449.193 85.8797H472.483L471.141 89.6722L481.922 107.547L512.253 85.8797H541.939C547.82 85.8797 553.339 82.9404 556.615 78.0373C558.576 75.1489 559.658 71.7181 559.658 68.1853C559.658 63.1804 558.033 60.7556 554.371 54.5662ZM449.195 80.7219C442 80.7219 437.642 75.7169 435.062 70.6101C436.325 71.0227 437.667 71.28 439.086 71.28H477.618L474.291 80.7219H449.195ZM552.333 75.177C550.013 78.6333 546.118 80.7219 541.939 80.7219H510.605L509.262 81.677L483.471 100.095L480.532 95.2452L478.649 92.097L477.205 89.7232L480.119 87.6601L484.503 84.5145L502.994 71.2825H532.68C538.561 71.2825 544.053 68.3687 547.356 63.4936C548.645 61.5859 549.498 59.4438 549.962 57.2253L550.555 58.2569C553.754 63.621 554.501 65.0142 554.501 68.1879C554.501 70.661 553.752 73.0604 552.333 75.177Z" fill="#FD5750"/>
</g>
<defs>
<clipPath id="clip0">
<rect width="133.341" height="106.897" fill="white" transform="translate(426.317 0.650269)"/>
</clipPath>
</defs>
</svg>
